<?xml version="1.0" encoding="iso-8859-1"?>
<!-- Generator: Adobe Illustrator 19.0.0, SVG Export Plug-In . SVG Version: 6.00 Build 0)  -->
<svg version="1.1" id="Layer_1" xmlns="http://www.w3.org/2000/svg" xmlns:xlink="http://www.w3.org/1999/xlink" x="0px" y="0px"
	 viewBox="0 0 512 512" style="enable-background:new 0 0 512 512;" xml:space="preserve">
<g transform="translate(1 1)">
	<path style="fill:#FFA800;" d="M459.8,197.13c11.947,13.653,8.533,36.693,8.533,63.147v85.333c0,33.28-19.627,67.413-52.053,75.093
		c-5.12,0.853-0.853,2.56,0.853,5.12c5.12-2.56,11.093-4.267,16.213-5.12c32.427-7.68,69.12-41.813,69.12-75.093v-85.333
		C502.467,233.824,480.28,211.637,459.8,197.13"/>
	<path style="fill:#FFFFFF;" d="M220.867,451.424c-18.773,0-34.133-15.36-34.133-34.133s15.36-34.133,34.133-34.133H178.2
		c-18.773,0-34.133-15.36-34.133-34.133s15.36-34.133,34.133-34.133h-34.133c-18.773,0-34.133-15.36-34.133-34.133
		s15.36-34.133,34.133-34.133H178.2H41.667c-18.773,0-34.133-15.36-34.133-34.133s15.36-34.133,34.133-34.133h221.867l-23.04-15.36
		c-29.867-17.067-43.52-58.027-33.28-85.333c0.853-4.267,3.413-6.827,5.12-10.24c6.827-10.24,14.507-8.533,17.067-8.533
		s52.053,48.64,102.4,76.8c0,0,40.96,24.747,68.267,51.2h25.6c42.667,0,51.2,34.133,51.2,76.8v85.333
		c0,33.28-28.16,67.413-60.587,75.093c-7.68,1.707,6.827,5.12,0.853,10.24c-8.533,7.68-29.867,17.067-59.733,17.067H220.867z"/>
	<path style="fill:#FFE100;" d="M246.467,451.424c-18.773,0-34.133-15.36-34.133-34.133s15.36-34.133,34.133-34.133H203.8
		c-18.773,0-34.133-15.36-34.133-34.133s15.36-34.133,34.133-34.133h-34.133c-18.773,0-34.133-15.36-34.133-34.133
		s15.36-34.133,34.133-34.133H203.8H67.267c-18.773,0-34.133-15.36-34.133-34.133s15.36-34.133,34.133-34.133h204.8l-23.04-15.36
		c-29.867-17.067-43.52-58.027-33.28-85.333c1.707-4.267,3.413-6.827,5.12-10.24c6.827-10.24,14.507-8.533,17.067-8.533
		c2.56,0,52.053,48.64,102.4,76.8c0,0,40.107,24.747,68.267,51.2h25.6c42.667,0,42.667,34.133,42.667,76.8v85.333
		c0,33.28-19.627,67.413-52.053,75.093c-7.68,1.707,6.827,5.12,0.853,10.24c-8.533,7.68-29.867,17.067-59.733,17.067H246.467z"/>
	<path d="M280.6,195.424c-1.707,0-2.56,0-3.413-0.853l-17.067-8.533c-4.267-1.707-5.973-6.827-3.413-11.093
		c2.56-4.267,6.827-5.973,11.093-3.413l17.067,8.533c4.267,1.707,5.973,6.827,3.413,11.093
		C286.573,193.717,284.013,195.424,280.6,195.424z"/>
	<path d="M280.6,255.157H178.2c-5.12,0-8.533-3.413-8.533-8.533c0-5.12,3.413-8.533,8.533-8.533h102.4
		c5.12,0,8.533,3.413,8.533,8.533C289.133,251.744,285.72,255.157,280.6,255.157z"/>
	<path d="M272.067,323.424H178.2c-5.12,0-8.533-3.413-8.533-8.533s3.413-8.533,8.533-8.533h93.867c5.12,0,8.533,3.413,8.533,8.533
		S277.187,323.424,272.067,323.424z"/>
	<path d="M280.6,391.69h-59.733c-5.12,0-8.533-3.413-8.533-8.533s3.413-8.533,8.533-8.533H280.6c5.12,0,8.533,3.413,8.533,8.533
		S285.72,391.69,280.6,391.69z"/>
	<path d="M400.067,452.277c-3.413,0-6.827-2.56-7.68-5.973c-1.707-4.267,0.853-9.387,5.12-11.093
		c11.093-3.413,13.653-13.653,18.773-32.427l0.853-5.12c0.853-4.267,5.973-7.68,10.24-5.973c4.267,0.853,7.68,5.973,5.973,10.24
		l-0.853,4.267c-5.12,19.627-9.387,37.547-29.867,44.373C401.773,452.277,400.92,452.277,400.067,452.277z"/>
	<path d="M425.667,229.557c-2.56,0-5.12-0.853-6.827-3.413c-4.267-5.12-7.68-11.093-11.947-15.36
		c-4.267-5.973-8.533-11.947-13.653-17.92c-3.413-3.413-2.56-8.533,0.853-11.947s8.533-2.56,11.947,0.853
		c5.973,6.827,11.093,13.653,15.36,19.627c3.413,5.12,6.827,9.387,11.093,14.507c3.413,3.413,2.56,9.387-0.853,11.947
		C429.08,228.704,427.373,229.557,425.667,229.557z"/>
	<path d="M357.4,459.957H220.867c-23.893,0-42.667-18.773-42.667-42.667c0-9.387,3.413-18.773,8.533-25.6H178.2
		c-23.893,0-42.667-18.773-42.667-42.667c0-9.387,3.413-18.773,8.533-25.6l0,0c-23.893,0-42.667-18.773-42.667-42.667
		c0-9.387,3.413-18.773,8.533-25.6H41.667C17.773,255.157-1,236.384-1,212.49s18.773-42.667,42.667-42.667h51.2
		c5.12,0,8.533,3.413,8.533,8.533c0,5.12-3.413,8.533-8.533,8.533h-51.2c-14.507,0-25.6,11.093-25.6,25.6
		c0,14.507,11.093,25.6,25.6,25.6H178.2c5.12,0,8.533,3.413,8.533,8.533c0,5.12-3.413,8.533-8.533,8.533h-34.133
		c-14.507,0-25.6,11.093-25.6,25.6c0,14.507,11.093,25.6,25.6,25.6H178.2c5.12,0,8.533,3.413,8.533,8.533s-3.413,8.533-8.533,8.533
		c-14.507,0-25.6,11.093-25.6,25.6s11.093,25.6,25.6,25.6h42.667c5.12,0,8.533,3.413,8.533,8.533s-3.413,8.533-8.533,8.533
		c-14.507,0-25.6,11.093-25.6,25.6s11.093,25.6,25.6,25.6H357.4c29.013,0,47.787-9.387,53.76-15.36
		c5.973-5.12,15.36-9.387,29.013-11.947c29.013-6.827,53.76-37.547,53.76-66.56V263.69c0-37.547-30.72-68.267-68.267-68.267h-25.6
		c-2.56,0-4.267-0.853-5.973-2.56c-26.453-25.6-66.56-49.493-66.56-50.347c-36.693-20.48-73.387-52.053-91.307-67.413
		c-3.413-3.413-6.827-5.973-9.387-7.68c-2.56,0-4.267,0-7.68,5.12c-1.707,3.413-3.413,5.973-4.267,8.533
		c-8.533,22.187,2.56,58.88,29.867,75.093l23.893,16.213c3.413,1.707,4.267,5.973,3.413,9.387c-0.853,3.413-4.267,5.973-8.533,5.973
		h-102.4c-5.12,0-8.533-3.413-8.533-8.533c0-5.12,3.413-8.533,8.533-8.533h75.093l0,0C203.8,151.05,186.733,107.53,198.68,74.25
		c1.707-3.413,3.413-7.68,5.973-11.947c8.533-12.8,18.773-12.8,23.04-11.947c4.267-0.853,5.973,0,18.773,11.947
		c17.067,15.36,53.76,46.08,88.747,65.707c1.707,0.853,39.253,24.747,67.413,50.347h23.04c46.933,0,85.333,38.4,85.333,85.333
		v85.333c0,36.693-30.72,75.093-67.413,83.627c-10.24,2.56-17.92,5.12-21.333,8.533C412.867,449.717,388.973,459.957,357.4,459.957z
		 M231.107,67.424L231.107,67.424L231.107,67.424z"/>
	<path d="M135.533,178.357c0-5.12-3.413-8.533-8.533-8.533s-8.533,3.413-8.533,8.533c0,5.12,3.413,8.533,8.533,8.533
		S135.533,183.477,135.533,178.357"/>
</g>
<g>
</g>
<g>
</g>
<g>
</g>
<g>
</g>
<g>
</g>
<g>
</g>
<g>
</g>
<g>
</g>
<g>
</g>
<g>
</g>
<g>
</g>
<g>
</g>
<g>
</g>
<g>
</g>
<g>
</g>
</svg>
